<svg xmlns="http://www.w3.org/2000/svg" width="32" height="32" viewBox="0 0 256 256">
  <rect width="256" height="256" fill="#111111"/>
  <path d="M64 28h92l44 44v148a18 18 0 0 1-18 18H64a18 18 0 0 1-18-18V46a18 18 0 0 1 18-18z"
        fill="#FFFFFF" stroke="#0A0A0A" stroke-width="12" stroke-linejoin="round"/>
  <path d="M156 28v44a16 16 0 0 0 16 16h44"
        fill="#F2F2F2" stroke="#0A0A0A" stroke-width="12" stroke-linejoin="round"/>
  <g stroke="#CFCFCF" stroke-width="10" stroke-linecap="round" opacity="0.85">
    <line x1="86" y1="108" x2="168" y2="108"/>
    <line x1="86" y1="134" x2="156" y2="134"/>
    <line x1="86" y1="160" x2="164" y2="160"/>
  </g>
  <g fill="#FF4FA3">
    <path d="M70 146h28v64h44v22H70z"/>
    <path d="M152 232v-86h21l19 34 19-34h21v86h-26v-48l-11 20h-8l-11-20v48z"/>
  </g>
</svg>
